<svg width="106" height="36" viewBox="0 0 106 36" fill="none" xmlns="http://www.w3.org/2000/svg">
<path d="M51.3326 0.1439C49.5875 0.720116 48.5668 2.53108 48.4269 5.29692C48.3857 6.08716 48.4104 6.31765 48.5915 7.06673C48.8385 8.07099 49.2665 9.29751 50.2378 11.7588C51.1269 14.0225 51.2833 14.5246 51.6455 16.3274C52.0323 18.2618 52.518 20.9947 52.518 21.2087C52.518 21.3075 52.5509 21.3981 52.5839 21.4228C52.625 21.4475 52.7897 20.6572 52.9625 19.6776C53.7363 15.2243 53.9174 14.5082 55.0945 11.3472C55.7284 9.61855 56.2387 8.07099 56.4445 7.23136C56.6585 6.35057 56.6338 4.59723 56.4034 3.48596C56.0576 1.85609 55.218 0.662495 54.1067 0.226216C53.4235 -0.0371969 52.0159 -0.0783552 51.3326 0.1439Z" fill="white"/>
<path d="M38.4666 7.79951C36.6309 8.43335 36.0218 10.4254 37.2071 11.9236C37.7833 12.648 38.9852 13.2653 41.5288 14.1461C43.208 14.7223 44.1464 15.1669 45.1589 15.8419C45.9574 16.3687 47.1345 17.4553 47.7601 18.2455L48.1882 18.7806L48.3034 18.5007C48.6985 17.5458 47.8589 15.0351 46.3937 12.7879C45.3976 11.265 44.0888 9.79981 42.9281 8.91902C42.3519 8.48274 41.1254 7.86537 40.5656 7.73366C39.9812 7.59372 38.9605 7.62665 38.4666 7.79951Z" fill="white"/>
<path d="M63.9024 7.84075C62.7253 8.22764 61.5893 9.01788 60.3628 10.302C58.486 12.2612 56.8314 15.1999 56.461 17.2166C56.3705 17.7352 56.4116 18.4514 56.5516 18.6736C56.6174 18.7806 56.6503 18.7642 56.7738 18.5913C57.1113 18.1056 57.9098 17.2495 58.4037 16.8297C59.5891 15.8255 60.3875 15.3974 62.8076 14.4425C65.8945 13.2325 66.5448 12.9115 67.3186 12.2118C67.9277 11.6602 68.1994 11.0676 68.1994 10.2773C68.1994 9.79988 68.1582 9.5694 68.01 9.28129C67.7137 8.67215 67.2939 8.25233 66.693 7.95599C66.1991 7.70904 66.0674 7.68435 65.3183 7.66788C64.6351 7.64319 64.3963 7.67612 63.9024 7.84075Z" fill="white"/>
<path d="M21.1554 9.61877C19.1962 9.87395 17.4758 10.6889 16.4304 11.866C15.2533 13.1749 14.6853 15.1504 14.8993 17.1343C15.2039 19.9166 16.7761 21.8099 19.4679 22.6495C20.4968 22.9705 21.2624 23.0611 22.4889 23.0117C23.6578 22.9623 24.2669 22.8388 25.9544 22.3202C26.613 22.1144 26.9505 22.0486 27.0081 22.1062C27.1316 22.2297 21.106 27.5803 18.513 29.6382C14.5289 32.8074 12.1664 33.9598 9.10422 34.2314C6.67588 34.4537 4.67559 33.8775 3.36675 32.5851C2.36249 31.5973 2.01676 30.7495 2.01676 29.2924C2.01676 28.2059 2.14846 27.6955 2.60944 27.0123C2.92224 26.5513 3.21858 26.2879 3.76187 26.008C4.55211 25.6129 6.03381 25.4565 6.65118 25.7199C6.98045 25.8516 7.4085 26.222 7.4085 26.362C7.4085 26.4114 7.21917 26.5513 6.99691 26.6748C6.45362 26.9794 6.23137 27.4074 6.22314 28.14C6.21491 29.0208 6.58533 29.5394 7.5402 29.9674C8.08349 30.2144 9.15361 30.2309 9.75452 30.0004C10.7012 29.6382 11.2527 29.0537 11.5408 28.1071C12.0265 26.5101 11.1621 24.8803 9.36763 24.0242C8.50331 23.6044 7.76246 23.448 6.65942 23.448C3.39968 23.448 1.02073 24.8638 0.214023 27.2922C0.0164633 27.8766 0 28.0495 0 29.2595C0 30.4284 0.024695 30.6424 0.19756 31.1528C1.02073 33.5894 2.86462 35.1122 5.67985 35.672C6.59356 35.8531 8.44569 35.9189 9.46641 35.8037C12.4874 35.458 15.2615 34.215 18.5624 31.7208C20.0523 30.5931 20.6697 30.0662 23.7484 27.2757C25.0654 26.0821 26.3496 24.9297 26.613 24.7156C27.2633 24.1806 27.3374 24.2794 27.0081 25.2507C26.4566 26.8888 26.3084 29.0455 26.6541 30.3626C27.1645 32.2805 28.3828 33.9104 29.9715 34.7994C31.3626 35.5732 33.3629 35.8778 35.2315 35.5897C36.2193 35.4415 36.7626 35.2769 37.5199 34.9064C38.8041 34.2726 39.7589 33.3342 40.3434 32.1324C40.8537 31.0787 40.9196 30.4037 40.6068 29.3007C40.3681 28.4281 39.94 27.7284 39.2321 27.0287C38.2032 25.9998 37.1824 25.5882 35.6843 25.5882C34.0379 25.5882 32.8196 26.1726 32.227 27.2428C32.0047 27.6461 31.98 27.7614 31.98 28.4281C31.98 29.0784 32.0129 29.2266 32.2105 29.6464C32.5892 30.412 33.0995 30.6918 34.1202 30.6918C34.9187 30.6918 35.4949 30.412 35.8407 29.844C36.0465 29.5065 36.0876 29.3418 36.1205 28.7574C36.1452 28.3623 36.1205 27.9589 36.0629 27.8025L35.9724 27.5391L36.384 27.5803C36.9602 27.6379 37.7916 28.0659 38.1867 28.5187C39.1086 29.5723 39.1251 31.2927 38.2114 32.4369C37.6022 33.2107 36.5486 33.8446 35.4126 34.1244C34.6224 34.322 33.0831 34.2973 32.227 34.075C29.8562 33.4659 28.5968 31.8525 28.3663 29.1278C28.3087 28.4611 28.4322 27.1028 28.6133 26.3537C29.3212 23.5385 31.3297 21.6782 34.6059 20.8138C36.1699 20.4023 37.2071 20.2788 39.2239 20.287C40.8702 20.287 41.1254 20.3035 42.0638 20.5093C47.365 21.637 50.4436 24.5675 50.8799 28.8891C51.0857 30.9882 50.5589 32.8485 49.5052 33.7211C48.2622 34.7583 45.9821 34.9394 44.879 34.0915C44.2534 33.6141 44.0147 32.4781 44.3934 31.8031C44.5909 31.4574 45.2659 30.9388 45.5293 30.9388C45.6446 30.9388 45.6857 30.9964 45.6857 31.161C45.6857 31.5562 46.0562 32.0583 46.4677 32.2147C47.151 32.4781 47.826 32.1653 48.1964 31.3915C48.3857 31.0129 48.4186 30.8647 48.3693 30.5519C48.2705 29.8028 47.686 29.1443 46.8876 28.8809C46.69 28.815 46.3113 28.7903 45.8915 28.815C44.204 28.9056 42.6647 30.2638 42.5083 31.8113C42.3025 33.7705 43.5043 35.3345 45.5376 35.7625C46.2537 35.9189 47.7354 35.8695 48.5668 35.672C50.3284 35.2439 51.7195 34.0174 52.3205 32.3629C52.4439 32.0254 52.5839 31.7702 52.625 31.7866C52.6744 31.8031 52.7732 32.0007 52.8555 32.2394C53.3 33.5482 54.2302 34.6348 55.4073 35.211C56.461 35.7214 56.9796 35.8366 58.3213 35.8366C59.1939 35.8366 59.589 35.7955 59.9594 35.6802C61.8939 35.0958 62.8241 33.8363 62.7088 31.9595C62.6594 31.1528 62.4289 30.6342 61.861 30.0662C60.9555 29.1607 59.3997 28.7409 58.2226 29.0867C57.9838 29.1607 57.6546 29.3501 57.4323 29.5476C56.6997 30.1815 56.6503 31.054 57.3006 31.7949C57.8768 32.4452 58.5354 32.4946 59.1033 31.9266C59.2927 31.7373 59.4573 31.4656 59.5149 31.2763C59.6137 30.8894 59.6549 30.8812 60.0747 31.0952C60.6756 31.408 61.0296 31.976 61.0296 32.6674C61.0378 33.5647 60.371 34.2644 59.268 34.5113C57.3747 34.9476 55.6214 34.1738 54.8558 32.5604C54.4771 31.7537 54.329 31.0129 54.329 29.8193C54.329 27.3169 55.1192 25.3001 56.7656 23.662C58.2719 22.1556 60.6097 20.9949 63.2356 20.4681C64.0424 20.3035 64.4045 20.2788 65.9356 20.287C70.0597 20.2952 72.9902 21.2501 74.8423 23.1846C76.2828 24.6992 76.999 26.8065 76.8508 29.169C76.7603 30.7577 76.3816 31.7455 75.5173 32.6674C74.6365 33.5976 73.5335 34.075 71.8789 34.2397C69.6152 34.4702 67.3844 33.433 66.6106 31.7784C66.4131 31.3586 66.3884 31.2104 66.3884 30.4449C66.3884 29.6876 66.4131 29.5229 66.6106 29.1196C67.0057 28.2717 67.8124 27.6708 68.685 27.5803L69.0801 27.5391L69.0225 27.8848C68.9566 28.3046 69.113 29.3171 69.3188 29.7123C69.5164 30.1074 69.9774 30.4943 70.356 30.6013C70.7923 30.7248 71.6566 30.7165 71.9694 30.5848C72.7432 30.2556 73.1877 29.5312 73.2453 28.494C73.2783 27.8848 73.2618 27.7696 73.0642 27.3662C72.5127 26.2385 71.2121 25.5882 69.5164 25.5882C68.6356 25.5882 68.0018 25.7364 67.2115 26.115C65.1948 27.1028 63.993 29.6464 64.6186 31.6055C65.2359 33.5235 67.0716 35.0052 69.4752 35.5238C70.5042 35.7461 72.4716 35.7214 73.4511 35.4827C76.003 34.8488 77.7975 33.0872 78.5383 30.486C78.9828 28.922 78.777 26.7324 78.0197 25.0696C77.5094 23.9583 77.8468 24.1559 80.341 26.4114C84.1276 29.8357 85.5517 31.0376 87.2556 32.2558C89.7828 34.0586 92.2852 35.211 94.7053 35.6885C95.7425 35.8942 98.2943 35.8942 99.2739 35.6885C101.999 35.1205 103.744 33.861 104.74 31.7537C105.184 30.8235 105.324 30.2062 105.316 29.2101C105.308 26.6995 103.917 24.765 101.521 23.9336C100.229 23.4891 98.0885 23.308 97.0102 23.5632C94.8041 24.0818 93.3059 25.8763 93.5858 27.6461C93.7587 28.708 94.3431 29.49 95.3062 29.9345C95.7013 30.1156 95.8907 30.1568 96.5163 30.1568C97.4547 30.1568 98.0062 29.9757 98.4919 29.5065C99.3644 28.6668 99.1669 27.1934 98.105 26.6501C97.9321 26.5595 97.7922 26.4608 97.7922 26.4196C97.7922 26.2632 98.1461 25.9175 98.4754 25.7611C99.1669 25.4236 100.632 25.58 101.595 26.0986C102.69 26.683 103.225 27.7284 103.225 29.2924C103.225 30.6177 102.822 31.6632 101.966 32.5193C100.772 33.7129 99.2492 34.2479 97.0513 34.2479C92.9355 34.2479 89.9474 32.6098 82.6871 26.3373C79.1228 23.2669 77.9456 22.1885 78.0279 22.1062C78.0856 22.0486 78.4889 22.1309 79.3285 22.3614C81.9215 23.094 83.074 23.201 84.7285 22.8635C86.3913 22.526 87.5108 21.958 88.5727 20.8962C89.3794 20.0977 89.8568 19.2745 90.1532 18.2044C90.3919 17.3318 90.4084 15.3727 90.1861 14.5166C89.8322 13.1255 88.9678 11.8331 87.8812 11.0675C85.7575 9.56115 82.5307 9.12487 80.1764 10.0386C78.0115 10.87 76.4722 12.8867 76.6862 14.5907C76.8837 16.1547 77.9045 17.0767 79.5179 17.1754C80.5057 17.2331 81.0737 17.0602 81.584 16.5498C82.0285 16.0971 82.1932 15.6444 82.1273 15.0023C82.0203 13.9322 81.3206 13.3395 80.1435 13.2983C79.8636 13.2901 79.6825 13.2407 79.6825 13.1913C79.6825 13.0514 80.2423 12.327 80.5633 12.0553C81.7075 11.084 84.2429 11.1416 86.0867 12.1788C86.7782 12.5657 87.6755 13.5123 87.9883 14.1791C88.9349 16.1465 88.4492 18.7477 86.9017 20.1141C86.4078 20.5504 85.3706 21.0855 84.6627 21.2666C83.1563 21.6617 81.1971 21.4312 78.2831 20.5257C75.97 19.8013 72.0353 19.0358 68.8167 18.6654C66.8 18.4431 64.635 18.4184 63.3674 18.6242C59.4573 19.2416 55.9095 21.2172 54.082 23.7855C53.6869 24.3535 53.0366 25.5717 52.7814 26.2467L52.6662 26.5348L52.5839 26.3291C51.8677 24.658 50.954 23.2669 49.9168 22.2955C46.9534 19.5297 42.4754 18.0151 38.2114 18.3279C35.001 18.5748 30.1444 19.5215 26.8352 20.5587C24.7444 21.209 22.9663 21.5218 21.7728 21.4477C20.2581 21.3489 19.1633 20.8797 18.1837 19.9084C17.1795 18.9123 16.7844 17.9081 16.7844 16.3687C16.7761 14.8953 17.163 13.9404 18.1508 12.9526C19.1139 11.9813 20.3651 11.4544 21.8633 11.3721C23.452 11.2816 24.5962 11.7425 25.2877 12.7468C25.4523 12.9938 25.6005 13.216 25.6005 13.2407C25.6005 13.2654 25.3535 13.2983 25.049 13.3066C24.0035 13.3313 23.3368 13.8416 23.131 14.7636C22.8264 16.1465 23.8142 17.1919 25.4358 17.1919C26.8682 17.1919 27.9053 16.5663 28.3334 15.4386C29.1977 13.1666 27.3291 10.6066 24.234 9.81633C23.3532 9.59408 22.0032 9.50353 21.1554 9.61877Z" fill="white"/>
</svg>
