<svg width="106" height="36" viewBox="0 0 106 36" fill="none" xmlns="http://www.w3.org/2000/svg">
<path d="M53.9836 35.7171C55.7287 35.1409 56.7494 33.3299 56.8894 30.5641C56.9305 29.7739 56.9058 29.5434 56.7247 28.7943C56.4778 27.79 56.0497 26.5635 55.0784 24.1022C54.1894 21.8385 54.033 21.3364 53.6708 19.5337C53.2839 17.5992 52.7982 14.8663 52.7982 14.6523C52.7982 14.5535 52.7653 14.463 52.7324 14.4383C52.6912 14.4136 52.5266 15.2038 52.3537 16.1834C51.5799 20.6367 51.3988 21.3529 50.2217 24.5138C49.5879 26.2425 49.0775 27.79 48.8717 28.6297C48.6577 29.5104 48.6824 31.2638 48.9129 32.3751C49.2586 34.0049 50.0982 35.1985 51.2095 35.6348C51.8927 35.8982 53.3003 35.9394 53.9836 35.7171Z" fill="white"/>
<path d="M66.8497 28.0615C68.6853 27.4277 69.2945 25.4356 68.1091 23.9374C67.5329 23.2131 66.3311 22.5957 63.7875 21.7149C62.1082 21.1387 61.1698 20.6942 60.1573 20.0192C59.3588 19.4923 58.1817 18.4058 57.5561 17.6155L57.1281 17.0805L57.0128 17.3603C56.6177 18.3152 57.4573 20.8259 58.9226 23.0731C59.9186 24.596 61.2274 26.0612 62.3881 26.942C62.9643 27.3783 64.1908 27.9957 64.7506 28.1274C65.335 28.2673 66.3558 28.2344 66.8497 28.0615Z" fill="white"/>
<path d="M41.4138 28.0203C42.5909 27.6334 43.7269 26.8431 44.9534 25.559C46.8302 23.5999 48.4848 20.6612 48.8552 18.6444C48.9458 18.1258 48.9046 17.4097 48.7647 17.1874C48.6988 17.0804 48.6659 17.0968 48.5424 17.2697C48.2049 17.7554 47.4064 18.6115 46.9125 19.0313C45.7272 20.0356 44.9287 20.4636 42.5086 21.4185C39.4217 22.6285 38.7714 22.9496 37.9976 23.6493C37.3885 24.2008 37.1169 24.7935 37.1169 25.5837C37.1169 26.0611 37.158 26.2916 37.3062 26.5797C37.6025 27.1889 38.0223 27.6087 38.6232 27.905C39.1171 28.152 39.2488 28.1767 39.9979 28.1931C40.6812 28.2178 40.9199 28.1849 41.4138 28.0203Z" fill="white"/>
<path d="M84.1608 26.2423C86.12 25.9871 87.8404 25.1721 88.8858 23.995C90.063 22.6862 90.6309 20.7106 90.4169 18.7267C90.1123 15.9444 88.5401 14.0512 85.8483 13.2115C84.8194 12.8905 84.0538 12.7999 82.8273 12.8493C81.6584 12.8987 81.0493 13.0222 79.3618 13.5408C78.7033 13.7466 78.3658 13.8124 78.3081 13.7548C78.1847 13.6313 84.2102 8.28076 86.8032 6.22284C90.7873 3.05365 93.1498 1.90122 96.212 1.62957C98.6403 1.40732 100.641 1.98354 101.949 3.27591C102.954 4.26371 103.299 5.11157 103.299 6.56857C103.299 7.65515 103.168 8.16552 102.707 8.84874C102.394 9.30972 102.098 9.57313 101.554 9.85301C100.764 10.2481 99.2824 10.4045 98.665 10.1411C98.3358 10.0094 97.9077 9.63898 97.9077 9.49904C97.9077 9.44965 98.0971 9.30971 98.3193 9.18624C98.8626 8.88167 99.0849 8.45362 99.0931 7.72101C99.1013 6.84022 98.7309 6.32162 97.776 5.89358C97.2327 5.64662 96.1626 5.63016 95.5617 5.86065C94.6151 6.22284 94.0635 6.80729 93.7754 7.75393C93.2898 9.35087 94.1541 10.9807 95.9486 11.8368C96.8129 12.2567 97.5538 12.4131 98.6568 12.4131C101.917 12.4131 104.295 10.9972 105.102 8.56887C105.3 7.98442 105.316 7.81155 105.316 6.6015C105.316 5.4326 105.292 5.21858 105.119 4.70822C104.295 2.27164 102.452 0.748787 99.6364 0.189033C98.7227 0.00793781 96.8705 -0.0579155 95.8498 0.0573264C92.8288 0.403056 90.0547 1.64604 86.7538 4.14023C85.2639 5.26797 84.6465 5.79479 81.5679 8.58533C80.2508 9.77892 78.9667 10.9314 78.7033 11.1454C78.053 11.6804 77.9789 11.5817 78.3081 10.6103C78.8597 8.97222 79.0078 6.81552 78.6621 5.49845C78.1517 3.58048 76.9334 1.9506 75.3447 1.06159C73.9536 0.287809 71.9533 -0.0167609 70.0847 0.271348C69.0969 0.419518 68.5536 0.584149 67.7963 0.954575C66.5122 1.58841 65.5573 2.52682 64.9728 3.72865C64.4625 4.7823 64.3966 5.45729 64.7094 6.56034C64.9481 7.43289 65.3762 8.13259 66.0841 8.83228C67.1131 9.86124 68.1338 10.2728 69.632 10.2728C71.2783 10.2728 72.4966 9.68837 73.0893 8.61825C73.3115 8.2149 73.3362 8.09966 73.3362 7.43289C73.3362 6.78259 73.3033 6.63442 73.1057 6.21461C72.7271 5.44906 72.2167 5.16919 71.196 5.16919C70.3975 5.16919 69.8213 5.44906 69.4756 6.01705C69.2698 6.35455 69.2286 6.51918 69.1957 7.10363C69.171 7.49875 69.1957 7.9021 69.2533 8.0585L69.3439 8.32192L68.9323 8.28076C68.3561 8.22314 67.5247 7.79509 67.1295 7.34235C66.2076 6.28869 66.1911 4.56827 67.1048 3.42407C67.714 2.6503 68.7676 2.01646 69.9036 1.73658C70.6938 1.53902 72.2332 1.56372 73.0893 1.78597C75.46 2.39512 76.7194 4.00852 76.9499 6.7332C77.0075 7.39997 76.8841 8.75819 76.703 9.50727C75.995 12.3225 73.9865 14.1829 70.7103 15.0472C69.1463 15.4588 68.1091 15.5822 66.0923 15.574C64.446 15.574 64.1908 15.5575 63.2524 15.3518C57.9512 14.224 54.8726 11.2935 54.4363 6.97192C54.2305 4.87284 54.7573 3.01249 55.811 2.13993C57.054 1.10274 59.3342 0.921646 60.4372 1.76951C61.0628 2.24694 61.3015 3.38292 60.9229 4.05791C60.7253 4.40364 60.0503 4.92224 59.7869 4.92224C59.6716 4.92224 59.6305 4.86461 59.6305 4.69998C59.6305 4.30486 59.2601 3.80273 58.8485 3.64633C58.1653 3.38292 57.4903 3.69572 57.1198 4.46949C56.9305 4.84815 56.8976 4.99632 56.947 5.30912C57.0457 6.0582 57.6302 6.71674 58.4287 6.98015C58.6262 7.046 59.0049 7.0707 59.4247 7.04601C61.1122 6.95546 62.6515 5.59723 62.8079 4.04968C63.0137 2.09054 61.8119 0.526527 59.7787 0.0984801C59.0625 -0.0579226 57.5808 -0.00853002 56.7494 0.189029C54.9878 0.617076 53.5967 1.84359 52.9958 3.49816C52.8723 3.83565 52.7324 4.09084 52.6912 4.07437C52.6418 4.05791 52.543 3.86035 52.4607 3.62163C52.0162 2.3128 51.086 1.22622 49.9089 0.65C48.8552 0.139636 48.3367 0.0243938 46.9949 0.0243937C46.1223 0.0243936 45.7272 0.0655542 45.3568 0.180796C43.4223 0.765246 42.4922 2.02469 42.6074 3.90151C42.6568 4.70821 42.8873 5.2268 43.4553 5.79479C44.3608 6.70027 45.9165 7.12009 47.0937 6.77436C47.3324 6.70027 47.6617 6.51095 47.8839 6.31339C48.6165 5.67955 48.6659 4.80699 48.0156 4.06614C47.4394 3.41584 46.7809 3.36645 46.2129 3.93444C46.0236 4.12376 45.8589 4.39541 45.8013 4.58474C45.7025 4.97162 45.6614 4.97986 45.2415 4.76583C44.6406 4.45303 44.2867 3.88504 44.2867 3.19358C44.2784 2.29633 44.9452 1.59664 46.0482 1.34969C47.9415 0.913413 49.6949 1.68719 50.4604 3.3006C50.8391 4.1073 50.9872 4.84815 50.9872 6.04174C50.9872 8.54417 50.197 10.5609 48.5507 12.199C47.0443 13.7054 44.7065 14.8661 42.0806 15.3929C41.2739 15.5575 40.9117 15.5822 39.3806 15.574C35.2565 15.5658 32.3261 14.6109 30.4739 12.6765C29.0334 11.1618 28.3172 9.05453 28.4654 6.69204C28.556 5.10333 28.9346 4.11553 29.7989 3.19358C30.6797 2.2634 31.7828 1.78597 33.4373 1.62134C35.701 1.39085 37.9318 2.42804 38.7056 4.0826C38.9032 4.50242 38.9279 4.65059 38.9279 5.41613C38.9279 6.17345 38.9032 6.33808 38.7056 6.74143C38.3105 7.58929 37.5038 8.19021 36.6312 8.28075L36.2361 8.32191L36.2937 7.97618C36.3596 7.55637 36.2032 6.54387 35.9974 6.14875C35.7998 5.75363 35.3388 5.36674 34.9602 5.25973C34.5239 5.13626 33.6596 5.14449 33.3468 5.27619C32.573 5.60546 32.1285 6.32985 32.0709 7.36704C32.038 7.97618 32.0544 8.09142 32.252 8.49478C32.8035 9.62251 34.1041 10.2728 35.7998 10.2728C36.6806 10.2728 37.3144 10.1246 38.1047 9.74599C40.1214 8.75819 41.3233 6.21461 40.6977 4.25547C40.0803 2.33749 38.2446 0.855795 35.841 0.337198C34.812 0.114942 32.8447 0.139634 31.8651 0.378354C29.3133 1.01219 27.5188 2.77377 26.7779 5.37497C26.3334 6.93899 26.5392 9.12861 27.2965 10.7914C27.8069 11.9027 27.4694 11.7051 24.9752 9.44965C21.1886 6.02528 19.7645 4.82345 18.0606 3.60517C15.5335 1.80243 13.031 0.649997 10.6109 0.172561C9.57374 -0.0332306 7.02192 -0.0332308 6.04235 0.172561C3.31768 0.740546 1.57257 1.99999 0.576533 4.1073C0.132022 5.03747 -0.00791667 5.65485 0.000315359 6.65088C0.00854726 9.16154 1.3997 11.096 3.79511 11.9274C5.08749 12.3719 7.22772 12.553 8.30606 12.2978C10.5121 11.7792 12.0103 9.98471 11.7304 8.2149C11.5576 7.15301 10.9731 6.371 10.01 5.92649C9.6149 5.7454 9.42557 5.70424 8.79997 5.70424C7.86156 5.70424 7.31003 5.88534 6.82437 6.35454C5.95181 7.19417 6.14937 8.66764 7.21125 9.21093C7.38412 9.30148 7.52406 9.40026 7.52406 9.44141C7.52406 9.59782 7.1701 9.94355 6.84083 10.0999C6.14937 10.4374 4.68413 10.281 3.72103 9.76245C2.62622 9.178 2.09116 8.13258 2.09116 6.56856C2.09116 5.24327 2.49451 4.19784 3.3506 3.34175C4.54419 2.14816 6.06705 1.6131 8.2649 1.6131C12.3807 1.6131 15.3688 3.25121 22.6292 9.52373C26.1935 12.5941 27.3706 13.6725 27.2883 13.7548C27.2307 13.8124 26.8273 13.7301 25.9877 13.4996C23.3947 12.767 22.2423 12.66 20.5877 12.9975C18.9249 13.335 17.8054 13.903 16.7435 14.9649C15.9368 15.7633 15.4594 16.5865 15.163 17.6566C14.9243 18.5292 14.9079 20.4883 15.1301 21.3444C15.4841 22.7356 16.3484 24.0279 17.435 24.7935C19.5587 26.2999 22.7856 26.7361 25.1398 25.8224C27.3047 24.991 28.8441 22.9743 28.63 21.2703C28.4325 19.7063 27.4118 18.7844 25.7983 18.6856C24.8105 18.628 24.2426 18.8008 23.7322 19.3112C23.2877 19.7639 23.1231 20.2167 23.1889 20.8587C23.2959 21.9289 23.9956 22.5215 25.1727 22.5627C25.4526 22.5709 25.6337 22.6203 25.6337 22.6697C25.6337 22.8096 25.074 23.534 24.7529 23.8057C23.6087 24.777 21.0734 24.7194 19.2295 23.6822C18.538 23.2953 17.6408 22.3487 17.328 21.6819C16.3813 19.7145 16.867 17.1133 18.4145 15.7469C18.9084 15.3106 19.9456 14.7755 20.6536 14.5944C22.16 14.1993 24.1191 14.4298 27.0331 15.3353C29.3462 16.0597 33.2809 16.8252 36.4995 17.1956C38.5163 17.4179 40.6812 17.4426 41.9489 17.2368C45.8589 16.6194 49.4068 14.6438 51.2342 12.0756C51.6293 11.5076 52.2796 10.2893 52.5348 9.61428L52.65 9.32617L52.7324 9.53197C53.4485 11.203 54.3622 12.5941 55.3994 13.5655C58.3628 16.3313 62.8408 17.8459 67.1048 17.5331C70.3152 17.2862 75.1719 16.3396 78.481 15.3024C80.5718 14.6521 82.3499 14.3393 83.5435 14.4133C85.0581 14.5121 86.1529 14.9813 87.1325 15.9527C88.1367 16.9487 88.5319 17.953 88.5319 19.4923C88.5401 20.9658 88.1532 21.9206 87.1654 22.9084C86.2023 23.8798 84.9511 24.4066 83.4529 24.4889C81.8642 24.5795 80.72 24.1185 80.0286 23.1142C79.8639 22.8673 79.7157 22.645 79.7157 22.6203C79.7157 22.5956 79.9627 22.5627 80.2673 22.5545C81.3127 22.5298 81.9795 22.0194 82.1852 21.0975C82.4898 19.7145 81.502 18.6691 79.8804 18.6691C78.4481 18.6691 77.4109 19.2947 76.9828 20.4225C76.1185 22.6944 77.9871 25.2544 81.0822 26.0447C81.963 26.2669 83.313 26.3575 84.1608 26.2423Z" fill="white"/>
</svg>
