<svg xmlns="http://www.w3.org/2000/svg" version="1.1" xmlns:xlink="http://www.w3.org/1999/xlink" xmlns:svgjs="http://svgjs.com/svgjs" width="512" height="512" x="0" y="0" viewBox="0 0 32 32" style="enable-background:new 0 0 512 512" xml:space="preserve" class=""><g><g id="Layer_13" data-name="Layer 13"><path d="m30 7a1 1 0 0 1 -1 1h-26a1 1 0 0 1 0-2h26a1 1 0 0 1 1 1zm-5 8h-22a1 1 0 0 0 0 2h22a1 1 0 0 0 0-2zm-9 9h-13a1 1 0 0 0 0 2h13a1 1 0 0 0 0-2z" fill="#000000" data-original="#000000" class=""></path></g></g></svg>