<svg width="82" height="82" viewBox="0 0 82 82" fill="none" xmlns="http://www.w3.org/2000/svg">
<path d="M76.3034 3.04528L74.9901 2.71827C60.436 -0.906091 45.2153 -0.906091 30.6613 2.71827L29.3492 3.04528C26.311 3.80118 24.1791 6.53111 24.1824 9.66197V19.1591C17.4019 21.0798 10.8645 23.7751 4.70065 27.1917L3.50985 27.8477C0.770598 29.3609 -0.580712 32.5497 0.236468 35.5706L4.20582 50.4131C7.78422 63.7344 17.6317 74.4743 30.5927 79.1928L34.6846 80.6933C39.5383 82.4389 44.9656 80.9817 48.2916 77.039L51.0854 73.7017C53.6861 70.6075 55.8207 67.1503 57.4224 63.4387C58.2822 63.105 59.102 62.6734 59.8653 62.1539L63.433 59.6565C74.7317 51.7397 81.4623 38.812 81.4689 25.0159V9.66197C81.4723 6.53178 79.3411 3.80185 76.3034 3.04528ZM48.9969 71.9488L46.2023 75.2888C43.6143 78.355 39.3932 79.4885 35.6176 78.1299L31.5257 76.6301C19.4012 72.2152 10.1891 62.1679 6.84117 49.7064L2.87049 34.864C2.38165 33.0538 3.19084 31.1444 4.83185 30.2373L6.02133 29.5813C11.7762 26.3905 17.8668 23.8471 24.1824 21.9976V25.0159C24.1918 37.2336 29.4818 48.85 38.6905 56.8786C36.2916 57.8536 33.7588 58.4623 31.1781 58.6828L20.921 59.5146C20.3003 59.5639 19.7915 60.0274 19.6849 60.6415C19.5784 61.2555 19.9014 61.8636 20.4695 62.1187L34.0672 68.2565C37.0282 69.5985 40.5247 68.6634 42.4215 66.0221L45.3971 61.8829L45.7861 62.1553C47.85 63.5965 50.3082 64.3684 52.8257 64.3651C53.2346 64.3651 53.6302 64.3131 54.0325 64.2738C52.6625 67.0217 50.9722 69.5978 48.9969 71.9488ZM41.0955 58.822C41.4677 59.095 41.8307 59.3894 42.2137 59.6565L43.1581 60.3171L40.201 64.4317C39.0622 66.0147 36.9643 66.5742 35.188 65.7683L26.4082 61.813L31.3979 61.404C34.7571 61.1223 38.0405 60.2485 41.0955 58.822ZM78.741 25.0159C78.7357 37.9223 72.4393 50.0148 61.8699 57.4214L58.3022 59.9189C55.0108 62.2119 50.6399 62.2119 47.3492 59.9189L43.7828 57.4214C33.2127 50.0155 26.9157 37.9223 26.9104 25.0159V9.66197C26.9104 7.78452 28.1877 6.14816 30.0092 5.69262L31.3226 5.36428C45.4424 1.84715 60.2089 1.84715 74.3288 5.36428L75.6421 5.69262C77.4629 6.14816 78.741 7.78452 78.741 9.66197V25.0159Z" fill="#D3B777"/>
<path d="M47.7694 25.4624L49.6296 23.4657C45.3652 19.2113 38.4621 19.2113 34.1977 23.4657L34.1298 23.5336L36.1265 25.3944C37.6729 23.8473 39.7748 22.9835 41.9619 22.9962C44.1497 23.0095 46.241 23.8973 47.7694 25.4624Z" fill="#D3B777"/>
<path d="M56.0211 23.4657L55.9532 23.5336L57.9499 25.3944C59.4963 23.8473 61.5982 22.9835 63.7854 22.9962C65.9732 23.0095 68.0644 23.8973 69.5929 25.4624L71.453 23.4657C67.1886 19.2113 60.2855 19.2113 56.0211 23.4657Z" fill="#D3B777"/>
<path d="M19.4492 45.2302C21.5817 44.6581 23.8548 44.9718 25.7522 46.1L27.0236 43.6845C21.8048 40.6715 15.1315 42.459 12.1179 47.6771L12.0706 47.7604L13.2501 48.4424L14.4775 49.0398C15.5591 47.1563 17.3493 45.7844 19.4492 45.2302Z" fill="#D3B777"/>
<path d="M67.5849 38.1595L57.463 40.001C54.3968 40.5605 51.2546 40.5605 48.1884 40.001L38.0645 38.1595C37.4531 38.0483 36.8431 38.3647 36.5827 38.9294C36.3216 39.4942 36.4754 40.1635 36.957 40.5571L48.5074 50.0043C51.0222 52.0516 54.6292 52.0516 57.144 50.0043L68.6924 40.5545C69.174 40.1609 69.3285 39.4915 69.0674 38.9268C68.807 38.362 68.1969 38.0457 67.5849 38.1569V38.1595ZM55.4171 47.8951C53.9086 49.1252 51.7428 49.1252 50.2343 47.8951L42.7678 41.7872L47.7008 42.6837C51.0888 43.303 54.56 43.303 57.9472 42.6837L62.8809 41.7872L55.4171 47.8951Z" fill="#D3B777"/>
</svg>
