<svg width="82" height="82" viewBox="0 0 82 82" fill="none" xmlns="http://www.w3.org/2000/svg">
<path d="M40.6387 18.3529C47.3651 18.3529 52.4371 15.5357 52.4371 11.7983C52.4371 8.06083 47.3651 5.24365 40.6387 5.24365C33.9124 5.24365 28.8404 8.06083 28.8404 11.7983C28.8404 15.5357 33.9124 18.3529 40.6387 18.3529ZM40.6387 7.86551C45.8903 7.86551 49.8152 9.94202 49.8152 11.7983C49.8152 13.6546 45.8903 15.7311 40.6387 15.7311C35.3872 15.7311 31.4622 13.6546 31.4622 11.7983C31.4622 9.94202 35.3872 7.86551 40.6387 7.86551Z" fill="#D3B777"/>
<path d="M44.5715 10.4873H47.1934V13.1092H44.5715V10.4873Z" fill="#D3B777"/>
<path d="M34.0841 10.4873H36.706V13.1092H34.0841V10.4873Z" fill="#D3B777"/>
<path d="M39.3278 10.4873H41.9497V13.1092H39.3278V10.4873Z" fill="#D3B777"/>
<path d="M73.4119 23.5967C73.4119 25.0426 74.5878 26.2185 76.0338 26.2185H78.6556C80.1016 26.2185 81.2775 25.0426 81.2775 23.5967V10.4874C81.2775 9.04146 80.1016 7.86556 78.6556 7.86556H76.0338C74.5878 7.86556 73.4119 9.04146 73.4119 10.4874H70.7901V5.24371L65.4192 5.25026L55.8193 6.18626C53.0768 2.41342 47.5198 0 40.6387 0C32.0155 0 25.4582 3.78465 23.9349 9.2971L10.4874 10.6093V33.7485C4.25789 37.0507 0 43.5975 0 51.1262V52.4371H2.62185V81.2775H77.3447C79.513 81.2775 81.2775 79.513 81.2775 77.3447V72.101V70.7901V41.9497V39.3278V38.0169C81.2775 35.8486 79.513 34.0841 77.3447 34.0841H70.7901V23.5967H73.4119ZM76.0338 10.4874H78.6556L78.6569 23.5967H76.0338V10.4874ZM73.4119 13.1093V20.9748H70.7901V13.1093H73.4119ZM40.6387 2.62185C48.9946 2.62185 55.0589 6.48122 55.0589 11.7983C55.0589 17.1155 48.9946 20.9748 40.6387 20.9748C32.2829 20.9748 26.2185 17.1155 26.2185 11.7983C26.2185 6.48122 32.2829 2.62185 40.6387 2.62185ZM17.4065 34.2519C14.6889 37.1255 10.9567 42.3915 10.549 49.8152H2.67167C3.28518 41.7819 9.50029 35.3059 17.4065 34.2519ZM36.706 34.0841H34.6753C33.6581 33.4981 32.5831 33.0078 31.4623 32.6093V28.8404H36.706V34.0841ZM41.8999 49.8152H34.0225C33.6148 42.3915 29.8826 37.1255 27.165 34.2519C35.0712 35.3059 41.2863 41.7819 41.8999 49.8152ZM78.6556 55.0589H73.4119V49.8152H78.6556V55.0589ZM70.7901 55.0589H65.5464V49.8152H70.7901V55.0589ZM44.5715 52.4371V51.1262C44.5715 50.6831 44.5335 50.2505 44.5047 49.8152H47.1934V55.0589H41.9497V52.4371H44.5715ZM61.5402 63.0504C60.7143 62.8839 59.891 62.8839 59.0651 63.0504C58.6758 62.5011 58.2039 62.0305 57.6808 61.6319V57.6808H62.9245V61.6319C62.4014 62.0305 61.9295 62.4998 61.5402 63.0504ZM47.1934 63.0661C46.7647 62.9783 46.3269 62.9245 45.8825 62.9245C44.4011 62.9245 43.0482 63.4371 41.9497 64.2695V57.6808H47.1934V63.0661ZM49.8152 57.6808H55.0589V60.4442C54.6329 60.3577 54.1964 60.3027 53.748 60.3027C52.2942 60.3027 50.9256 60.7943 49.8152 61.6372V57.6808ZM57.6808 55.0589V49.8152H62.9245V55.0589H57.6808ZM55.0589 55.0589H49.8152V49.8152H55.0589V55.0589ZM41.9497 69.4791C41.9497 67.3109 43.7142 65.5464 45.8825 65.5464C46.6716 65.5464 47.432 65.7797 48.0835 66.2202L49.4941 67.1745L50.0564 65.5673C50.6083 63.9864 52.0923 62.9245 53.748 62.9245C55.2569 62.9245 56.6098 63.7805 57.2744 65.1583L57.7962 66.2385L58.9183 65.8138C59.8556 65.4585 60.7484 65.4585 61.6844 65.8138L62.8065 66.2385L63.3283 65.1583C63.9955 63.7805 65.3484 62.9245 66.8573 62.9245C69.0256 62.9245 70.7901 64.689 70.7901 66.8573V68.1682H72.101C73.8078 68.1682 75.2498 69.2681 75.7926 70.7901H41.9497V69.4791ZM70.7901 61.6424C69.6915 60.8113 68.3373 60.3027 66.8573 60.3027C66.409 60.3027 65.9724 60.3577 65.5464 60.4442V57.6808H70.7901V61.6424ZM65.5464 47.1934V41.9497H70.7901V47.1934H65.5464ZM62.9245 47.1934H57.6808V41.9497H62.9245V47.1934ZM55.0589 47.1934H49.8152V41.9497H55.0589V47.1934ZM47.1934 47.1934H44.1756C43.7968 45.3358 43.1492 43.5778 42.2866 41.9497H43.2606H47.1934V47.1934ZM20.9748 34.463V49.8152H13.1722C13.6966 41.5669 18.9757 36.2026 20.9748 34.463ZM23.5967 34.4603C25.5945 36.1881 30.8763 41.5315 31.3993 49.8152H23.5967V34.4603ZM23.5967 31.4623H19.6639C19.2208 31.4623 18.7882 31.5003 18.353 31.5291V28.8404H23.5967V31.4623ZM5.24371 52.4371H39.3278V78.6556H34.0841V57.6808H10.4874V78.6556H5.24371V52.4371ZM20.9748 70.7901V78.6556H13.1093V60.3027H20.9748V68.1682H18.353V70.7901H20.9748ZM23.5967 70.7901H26.2185V68.1682H23.5967V60.3027H31.4623V78.6556H23.5967V70.7901ZM78.6556 77.3447C78.6556 78.067 78.067 78.6556 77.3447 78.6556H41.9497V73.4119H78.6556V77.3447ZM78.5127 70.7901C77.9884 68.2285 75.9735 66.211 73.4119 65.6866V57.6808H78.6556V70.7901H78.5127ZM78.6556 47.1934H73.4119V41.9497H78.6556V47.1934ZM78.6556 38.0169V39.3278H43.2606H40.6007C39.8889 38.3839 39.0971 37.5069 38.2306 36.706H77.3447C78.067 36.706 78.6556 37.2946 78.6556 38.0169ZM49.8152 34.0841H44.5715V28.8404H49.8152V34.0841ZM62.9245 34.0841H57.6808V28.8404H62.9245V34.0841ZM65.5464 34.0841V26.2185H55.0589V34.0841H52.4371V26.2185H41.9497V34.0841H39.3278V26.2185H28.8404V31.8582C27.987 31.6838 27.1074 31.5868 26.2185 31.5278V26.2185H15.7311V31.8582C14.8305 32.0417 13.9614 32.3065 13.1093 32.6093V12.9874L23.6072 11.9635C23.7238 18.7135 30.8448 23.5967 40.6387 23.5967C50.514 23.5967 57.6808 18.6348 57.6808 11.7983C57.6808 10.709 57.4802 9.67333 57.1341 8.69145L65.5464 7.86556H68.1682V34.0841H65.5464Z" fill="#D3B777"/>
</svg>
