<svg width="77" height="80" viewBox="0 0 77 80" fill="none" xmlns="http://www.w3.org/2000/svg">
<path d="M0.477325 67.6068L8.54284 54.1657L7.82058 47.99H6.79361C4.97318 47.99 3.49246 46.5093 3.49246 44.6889V40.9074C3.49246 39.0876 4.97318 37.6069 6.79361 37.6069H11.3227V33.2764C11.3227 33.2649 11.3221 33.2528 11.3221 33.2408C11.3221 32.9686 11.4162 32.7182 11.5737 32.5203C11.5737 32.5197 11.5743 32.5191 11.5749 32.5185L15.5747 27.4917V23.2691C15.5747 21.8765 16.7073 20.7433 18.0999 20.7433H22.7575C22.7871 20.6836 22.8172 20.6257 22.8474 20.569C23.4212 19.4895 25.0027 18.1077 27.549 16.4611C28.0764 16.1208 28.3914 15.5397 28.3914 14.9061V11.8361C27.8954 11.5899 27.5532 11.0782 27.5532 10.4875V4.04151C27.5532 1.81319 29.3658 0 31.5948 0H35.9959C38.2248 0 40.0374 1.81319 40.0374 4.04151V10.4875C40.0374 11.0782 39.6959 11.5899 39.1993 11.8361V14.9061C39.1993 15.5397 39.5149 16.1208 40.0428 16.4617C40.4634 16.7332 40.9346 17.0488 41.4143 17.3897C41.4107 17.2998 41.4083 17.2099 41.4083 17.1194C41.4083 13.7126 44.1803 10.9407 47.587 10.9407C50.9943 10.9407 53.7657 13.7126 53.7657 17.1194C53.7657 17.555 53.7187 17.9943 53.6263 18.4209C53.4876 19.0786 53.3578 19.6904 53.2371 20.2606C54.6467 19.7616 56.2758 19.9867 57.517 20.9986C58.4317 21.7456 59.0013 22.8039 59.1202 23.9793C59.2397 25.1547 58.8939 26.306 58.1512 27.2153C57.9563 27.4567 57.7306 27.6805 57.4832 27.8784L54.0342 30.6576C55.9759 32.3713 57.2322 34.844 57.3336 37.6069H62.863L63.1044 37.1531C63.0682 37.1344 63.032 37.1151 62.9964 37.0964C59.2922 35.1257 56.2022 31.8898 57.4645 29.5166C58.7268 27.1435 63.137 27.8965 66.8412 29.8672C66.8774 29.8859 66.9136 29.9052 66.9492 29.9251L68.5065 26.9975C68.4703 26.9788 68.4341 26.9595 68.3979 26.9408C66.5522 25.959 64.9592 24.7317 63.9117 23.4845C62.186 21.4312 62.5161 20.0199 62.8666 19.361C63.2172 18.7021 64.2032 17.6389 66.8707 17.9219C68.4896 18.0939 70.3982 18.7292 72.2433 19.7109C72.2795 19.7302 72.3157 19.7496 72.3513 19.7689L73.5189 17.5749C74.17 16.3513 74.5 15.0317 74.5 13.6535C74.5 10.5467 72.7984 7.71193 70.0585 6.25474C68.0848 5.20484 65.8196 4.98641 63.6818 5.63928C61.544 6.29275 59.7882 7.73968 58.7383 9.71337L56.7428 13.4671C56.4424 14.0318 55.7412 14.2466 55.1758 13.9455C54.6111 13.6457 54.3963 12.9439 54.6967 12.3791L56.6928 8.62546C59.4599 3.42243 65.9439 1.4421 71.147 4.20925C74.6442 6.0695 76.817 9.68803 76.817 13.6535C76.817 15.3907 76.3838 17.123 75.5644 18.6629L65.4878 37.6069H70.2057C72.0261 37.6069 73.5068 39.0876 73.5068 40.9074V44.6889C73.5068 46.5093 72.0261 47.99 70.2057 47.99H69.1793L68.4565 54.1657L76.522 67.6068C76.9811 68.3719 77.1151 69.2704 76.8991 70.1362C76.6825 71.0015 76.1418 71.7316 75.3767 72.1908C74.99 72.4225 74.5694 72.5721 74.1259 72.6349C73.9678 72.6572 73.8109 72.6681 73.6547 72.6681C72.4925 72.6681 71.4028 72.0623 70.7922 71.0455L67.1851 65.0346L66.925 67.2665C66.8557 67.856 66.3554 68.2905 65.7756 68.2905C65.7309 68.2905 65.6851 68.2881 65.6398 68.2826C65.0045 68.2084 64.5495 67.6328 64.6237 66.9974L65.2325 61.7805L56.957 47.99H20.0422L11.7668 61.7805L13.2209 74.2103C13.3911 75.6699 14.6274 76.7705 16.0973 76.7705H60.9026C62.3725 76.7705 63.6088 75.6699 63.779 74.2091L64.0849 71.597C64.1591 70.9617 64.7347 70.5067 65.3701 70.5815C66.0055 70.6558 66.4604 71.2314 66.3856 71.8668L66.0803 74.4776C65.7744 77.106 63.5479 79.0875 60.902 79.0875H16.0973C13.4514 79.0875 11.2249 77.106 10.9196 74.4782L9.81479 65.0334L6.20712 71.0449C5.24893 72.6409 3.19439 73.1333 1.62256 72.1908C0.0392609 71.2404 -0.473015 69.1901 0.477325 67.6068ZM65.7533 31.9127C62.0219 29.9275 59.682 30.2829 59.51 30.6045C59.3392 30.9262 60.3529 33.0658 64.0843 35.0503C64.1199 35.0696 64.1561 35.0889 64.1923 35.1076L65.8613 31.97C65.8251 31.9507 65.7895 31.9314 65.7533 31.9127ZM71.1554 21.7564C69.5884 20.9232 67.9375 20.365 66.6258 20.2262C65.4739 20.1044 64.967 20.3463 64.9121 20.4489C64.8578 20.5515 64.9399 21.1072 65.6851 21.9942C66.5341 23.0042 67.9188 24.0614 69.4864 24.8947C69.522 24.914 69.5582 24.9327 69.5944 24.952L71.2628 21.8144C71.2272 21.795 71.1916 21.7757 71.1554 21.7564ZM10.4948 50.9128L12.2489 47.99H10.1533L10.4948 50.9128ZM33.9848 37.6069V33.6444L30.3319 29.0538H17.292L14.8827 32.0822H20.1315C20.7717 32.0822 21.2901 32.6012 21.2901 33.2408C21.2901 33.8803 20.7717 34.3993 20.1315 34.3993H13.6397V37.6069H33.9848ZM17.8912 23.2685V26.7368H29.7321V23.2685C29.7321 23.1539 29.6386 23.0604 29.5239 23.0604H23.5479C23.5377 23.0604 23.528 23.061 23.5178 23.061C23.5075 23.061 23.4973 23.0604 23.487 23.0604H18.0999C17.9847 23.0604 17.8912 23.1539 17.8912 23.2685ZM35.9959 2.31702H31.5948C30.6438 2.31702 29.8703 3.09056 29.8703 4.04151V9.67415H37.7204V4.04151C37.7204 3.09056 36.9468 2.31702 35.9959 2.31702ZM38.786 18.4082C37.5943 17.6395 36.8823 16.3301 36.8823 14.9061V11.9918H30.7084V14.9061C30.7084 16.3301 29.9964 17.6395 28.8059 18.4076C27.2039 19.4436 26.2481 20.2099 25.6797 20.7433H29.5239C30.9165 20.7433 32.0491 21.8759 32.0491 23.2685V27.4911L36.0496 32.5185C36.2131 32.7236 36.3018 32.9777 36.3018 33.2395V37.6069H37.8404C37.9424 34.844 39.1981 32.3713 41.1392 30.6576C40.75 30.3439 40.2932 29.9764 39.7411 29.5311L37.6926 27.8808C37.4482 27.6853 37.2238 27.4627 37.0265 27.2207C36.2789 26.3054 35.9331 25.1541 36.0526 23.9787C36.1721 22.8033 36.7417 21.745 37.6582 20.998C38.5736 20.2516 39.7248 19.9064 40.899 20.0259C40.9672 20.0332 41.0354 20.0416 41.1024 20.0513C40.4688 19.5462 39.6832 18.9881 38.786 18.4082ZM42.8112 24.4059C42.4926 23.9546 42.2024 22.4871 40.6649 22.3309C40.1056 22.2741 39.5577 22.4383 39.122 22.7937C38.6858 23.1491 38.4143 23.6535 38.3575 24.2128C38.2845 24.9333 38.5814 25.6248 39.1432 26.0743L41.1947 27.727C42.0274 28.3979 42.6416 28.8933 43.137 29.2922C43.347 29.1842 43.5618 29.0834 43.7802 28.9905L42.8112 24.4059ZM47.587 13.2577C45.4576 13.2577 43.7253 14.9906 43.7253 17.1194C43.7253 17.3957 43.7543 17.6703 43.8128 17.9412L44.2629 20.07C44.2653 20.0814 44.2684 20.0929 44.2702 20.1044L46.0116 28.3436C46.5244 28.2604 47.0506 28.2169 47.587 28.2169C48.1228 28.2169 48.649 28.2604 49.1612 28.3436L49.1757 28.2761C49.5782 26.3693 50.0096 24.3251 51.3606 17.9364C51.4191 17.6654 51.4487 17.3909 51.4487 17.12C51.4487 14.9906 49.7164 13.2577 47.587 13.2577ZM56.3512 25.7557C57.0856 24.8567 56.951 23.5274 56.052 22.7937C55.0304 21.961 53.467 22.2536 52.8425 23.4743L52.3598 24.412C51.9248 26.4713 51.6786 27.6365 51.4433 28.7539L51.3932 28.9899C51.6116 29.0828 51.8258 29.1836 52.0364 29.2916C56.2553 25.874 56.1129 26.0508 56.3512 25.7557ZM47.587 30.5339C43.6082 30.5339 40.3499 33.6746 40.1599 37.6069H55.0141C54.8241 33.6746 51.5658 30.5339 47.587 30.5339ZM66.8466 47.99H64.7504L66.5045 50.9128L66.8466 47.99ZM72.7791 69.8526C72.9915 70.2068 73.3928 70.3981 73.8013 70.3402H73.8019C73.9364 70.3209 74.0656 70.275 74.1844 70.2038C74.4192 70.0632 74.5845 69.8394 74.6509 69.5739C74.7172 69.3084 74.6762 69.0332 74.5356 68.7985L66.2722 55.028C66.271 55.0274 66.2704 55.0261 66.2698 55.0249L61.7323 47.4639C61.7166 47.4391 61.7009 47.4138 61.687 47.3878L59.16 43.1768C59.0194 42.9421 58.7956 42.7767 58.5301 42.7104C58.4474 42.6892 58.3635 42.679 58.2803 42.679C58.0968 42.679 57.9164 42.7291 57.7547 42.8256C57.2708 43.1164 57.1127 43.7464 57.4036 44.2309L58.588 46.2046C58.6013 46.2251 58.6133 46.2456 58.6254 46.2667L72.7791 69.8526ZM55.5668 45.673L55.4166 45.4232C54.9574 44.6581 54.8241 43.7597 55.0401 42.8938C55.2567 42.0285 55.7973 41.2984 56.5624 40.8392C57.3275 40.3801 58.226 40.2461 59.0918 40.4627C59.9577 40.6793 60.6872 41.22 61.1464 41.9851L63.3602 45.673H70.2057C70.7481 45.673 71.1898 45.2319 71.1898 44.6889V40.9074C71.1898 40.365 70.7481 39.9239 70.2057 39.9239H6.79361C6.25117 39.9239 5.80948 40.365 5.80948 40.9074V44.6889C5.80948 45.2319 6.25117 45.673 6.79361 45.673H13.6391L15.8523 41.9851C16.3115 41.2194 17.0416 40.6787 17.9075 40.4627C18.7733 40.2461 19.6712 40.3801 20.4369 40.8392C21.202 41.2984 21.7426 42.0285 21.9586 42.8938C22.1752 43.7597 22.0413 44.6581 21.5821 45.4232L21.4325 45.673H55.5668ZM3.19801 70.3402C3.22034 70.3366 3.87502 70.4283 4.22015 69.8526C5.08723 68.4081 18.7794 45.5921 19.5957 44.2315C19.8866 43.747 19.7291 43.1164 19.2446 42.8262C18.7594 42.5348 18.1307 42.6917 17.8393 43.1774C16.9843 44.6026 11.5616 53.6384 10.7325 55.0201C10.7307 55.0231 10.7289 55.0261 10.7271 55.0292L2.46429 68.7991C2.08295 69.4333 2.48239 70.2388 3.19801 70.3402Z" fill="#D3B777"/>
<path d="M50.4653 58.1057V54.2724C50.4653 52.5666 51.8531 51.1782 53.5589 51.1782C55.2653 51.1782 56.6531 52.5666 56.6531 54.2724V58.1057C56.6531 59.8115 55.2653 61.1999 53.5589 61.1999C51.8531 61.1999 50.4653 59.8115 50.4653 58.1057ZM54.3361 58.1057V54.2724C54.3361 53.844 53.9873 53.4952 53.5589 53.4952C53.1305 53.4952 52.7817 53.844 52.7817 54.2724V58.1057C52.7817 58.5341 53.1305 58.8829 53.5589 58.8829C53.9873 58.8829 54.3361 58.5341 54.3361 58.1057Z" fill="#D3B777"/>
<path d="M42.9356 70.6291V66.7963C42.9356 65.0899 44.3234 63.7021 46.0292 63.7021C47.7356 63.7021 49.1234 65.0899 49.1234 66.7963V70.6291C49.1234 72.3355 47.7356 73.7232 46.0292 73.7232C44.3234 73.7232 42.9356 72.3355 42.9356 70.6291ZM46.8064 70.6291V66.7963C46.8064 66.3679 46.4582 66.0192 46.0292 66.0192C45.6008 66.0192 45.2526 66.3679 45.2526 66.7963V70.6291C45.2526 71.0575 45.6008 71.4062 46.0292 71.4062C46.4582 71.4062 46.8064 71.0575 46.8064 70.6291Z" fill="#D3B777"/>
<path d="M35.4059 58.1057V54.2724C35.4059 52.5666 36.7937 51.1782 38.4995 51.1782C40.2059 51.1782 41.5937 52.5666 41.5937 54.2724V58.1057C41.5937 59.8115 40.2059 61.1999 38.4995 61.1999C36.7937 61.1999 35.4059 59.8115 35.4059 58.1057ZM39.2767 58.1057V54.2724C39.2767 53.844 38.9285 53.4952 38.4995 53.4952C38.0711 53.4952 37.7229 53.844 37.7229 54.2724V58.1057C37.7229 58.5341 38.0711 58.8829 38.4995 58.8829C38.9285 58.8829 39.2767 58.5341 39.2767 58.1057Z" fill="#D3B777"/>
<path d="M27.8762 70.6291V66.7963C27.8762 65.0899 29.264 63.7021 30.9704 63.7021C32.6762 63.7021 34.0646 65.0899 34.0646 66.7963V70.6291C34.0646 72.3355 32.6762 73.7232 30.9704 73.7232C29.264 73.7232 27.8762 72.3355 27.8762 70.6291ZM31.747 70.6291V66.7963C31.747 66.3679 31.3988 66.0192 30.9704 66.0192C30.5414 66.0192 30.1932 66.3679 30.1932 66.7963V70.6291C30.1932 71.0575 30.5414 71.4062 30.9704 71.4062C31.3988 71.4062 31.747 71.0575 31.747 70.6291Z" fill="#D3B777"/>
<path d="M20.3465 58.1057V54.2724C20.3465 52.5666 21.7343 51.1782 23.4407 51.1782C25.1465 51.1782 26.5349 52.5666 26.5349 54.2724V58.1057C26.5349 59.8115 25.1465 61.1999 23.4407 61.1999C21.7343 61.1999 20.3465 59.8115 20.3465 58.1057ZM24.2179 58.1057V54.2724C24.2179 53.844 23.8691 53.4952 23.4407 53.4952C23.0123 53.4952 22.6635 53.844 22.6635 54.2724V58.1057C22.6635 58.5341 23.0123 58.8829 23.4407 58.8829C23.8691 58.8829 24.2179 58.5341 24.2179 58.1057Z" fill="#D3B777"/>
</svg>
