<svg width="82" height="82" viewBox="0 0 82 82" fill="none" xmlns="http://www.w3.org/2000/svg">
<g clip-path="url(#clip0_219_437)">
<path d="M44.6498 21.5146C45.313 21.5146 45.851 22.052 45.851 22.7158V22.8472C45.851 23.5103 45.313 24.0484 44.6498 24.0484C43.986 24.0484 43.4486 23.5103 43.4486 22.8472V22.7158C43.4486 22.052 43.986 21.5146 44.6498 21.5146Z" fill="#D3B777"/>
<path d="M41 21.5146C41.6631 21.5146 42.2012 22.052 42.2012 22.7158V22.8472C42.2012 23.5103 41.6631 24.0484 41 24.0484C40.3362 24.0484 39.7988 23.5103 39.7988 22.8472V22.7158C39.7988 22.052 40.3362 21.5146 41 21.5146Z" fill="#D3B777"/>
<path d="M37.3502 21.5146C38.014 21.5146 38.5514 22.052 38.5514 22.7158V22.8472C38.5514 23.5103 38.014 24.0484 37.3502 24.0484C36.687 24.0484 36.149 23.5103 36.149 22.8472V22.7158C36.149 22.052 36.687 21.5146 37.3502 21.5146Z" fill="#D3B777"/>
<path d="M47.0159 33.0437C47.0159 36.3607 44.317 39.0596 41 39.0596C37.683 39.0596 34.9841 36.3607 34.9841 33.0437C34.9841 29.7267 37.683 27.0278 41 27.0278C44.317 27.0278 47.0159 29.7267 47.0159 33.0437ZM37.3865 33.0437C37.3865 35.0356 39.0074 36.6572 41 36.6572C42.9926 36.6572 44.6135 35.0363 44.6135 33.0437C44.6135 31.0511 42.9926 29.4302 41 29.4302C39.0074 29.4302 37.3865 31.0511 37.3865 33.0437Z" fill="#D3B777"/>
<path d="M42.2012 31.2476V33.0437C42.2012 33.7075 41.6631 34.2449 41 34.2449H39.7557C39.0925 34.2449 38.5545 33.7075 38.5545 33.0437C38.5545 32.3799 39.0925 31.8425 39.7557 31.8425H39.7988V31.2476C39.7988 30.5838 40.3362 30.0464 41 30.0464C41.6631 30.0464 42.2012 30.5838 42.2012 31.2476Z" fill="#D3B777"/>
<path d="M44.723 53.1538H37.277C36.6132 53.1538 36.0758 52.6164 36.0758 51.9527V47.392C36.0758 44.6768 38.2849 42.4678 41 42.4678C43.7151 42.4678 45.9242 44.6768 45.9242 47.392V51.9527C45.9242 52.6164 45.3862 53.1538 44.723 53.1538ZM43.5218 47.392C43.5218 46.0018 42.3907 44.8701 41 44.8701C39.6093 44.8701 38.4782 46.0018 38.4782 47.392V50.7515H43.5218V47.392Z" fill="#D3B777"/>
<path d="M50.0288 47.2025V45.8062C50.0288 45.1424 50.5668 44.605 51.23 44.605C51.8931 44.605 52.4312 45.1424 52.4312 45.8062V47.2025C52.4312 47.8657 51.8931 48.4037 51.23 48.4037C50.5668 48.4037 50.0288 47.8657 50.0288 47.2025Z" fill="#D3B777"/>
<path d="M30.77 44.605C31.4338 44.605 31.9712 45.1424 31.9712 45.8062V47.2025C31.9712 47.8657 31.4338 48.4037 30.77 48.4037C30.1069 48.4037 29.5688 47.8657 29.5688 47.2025V45.8062C29.5688 45.1424 30.1069 44.605 30.77 44.605Z" fill="#D3B777"/>
<path d="M32.4122 54.9863H49.5878C50.2515 54.9863 50.7889 55.5244 50.7889 56.1875C50.7889 56.8513 50.2515 57.3887 49.5878 57.3887H32.4122C31.7485 57.3887 31.2111 56.8513 31.2111 56.1875C31.2111 55.5244 31.7485 54.9863 32.4122 54.9863Z" fill="#D3B777"/>
<path d="M41.884 65.9375H40.116C39.4529 65.9375 38.9148 65.3995 38.9148 64.7363C38.9148 64.0726 39.4529 63.5352 40.116 63.5352H41.884C42.5471 63.5352 43.0852 64.0726 43.0852 64.7363C43.0852 65.3995 42.5471 65.9375 41.884 65.9375Z" fill="#D3B777"/>
<path d="M46.1913 65.9375C45.5282 65.9375 44.9901 65.3995 44.9901 64.7363C44.9901 64.0726 45.5282 63.5352 46.1913 63.5352H51.6936C52.3573 63.5352 52.8947 64.0726 52.8947 64.7363C52.8947 65.3995 52.3573 65.9375 51.6936 65.9375H46.1913Z" fill="#D3B777"/>
<path d="M35.8087 65.9375H30.3064C29.6427 65.9375 29.1053 65.3995 29.1053 64.7363C29.1053 64.0726 29.6427 63.5352 30.3064 63.5352H35.8087C36.4718 63.5352 37.0099 64.0726 37.0099 64.7363C37.0099 65.3995 36.4718 65.9375 35.8087 65.9375Z" fill="#D3B777"/>
<path d="M74.5934 71.314C73.9296 71.314 73.3922 70.7766 73.3922 70.1128C73.3922 69.4496 73.9296 68.9116 74.5934 68.9116H76.5284C77.1916 68.9116 77.7296 69.4496 77.7296 70.1128C77.7296 70.7766 77.1916 71.314 76.5284 71.314H74.5934Z" fill="#D3B777"/>
<path d="M63.1766 71.314C62.5129 71.314 61.9755 70.7766 61.9755 70.1128C61.9755 69.4496 62.5129 68.9116 63.1766 68.9116H65.1116C65.7748 68.9116 66.3128 69.4496 66.3128 70.1128C66.3128 70.7766 65.7748 71.314 65.1116 71.314H63.1766Z" fill="#D3B777"/>
<path d="M1.20117 62.4278H2.98917V59.0839C2.98917 58.6297 3.24567 58.2143 3.65169 58.011C4.05771 57.807 4.54381 57.8496 4.90854 58.1211L6.43941 59.2616L7.97028 58.1211C8.33438 57.8496 8.82111 57.807 9.2265 58.011C9.63252 58.2143 9.88902 58.6297 9.88902 59.0839V62.4278H14.4066V59.0839C14.4066 58.6297 14.6631 58.2143 15.0691 58.011C15.4751 57.807 15.9612 57.8496 16.3253 58.1211L17.8562 59.2616L19.3877 58.1211C19.7518 57.8496 20.2379 57.807 20.6439 58.011C21.0499 58.2143 21.3064 58.6297 21.3064 59.0839V62.4278H24.8505V41.7176L23.2746 41.6456C22.6121 41.6156 22.0991 41.0544 22.1291 40.3913C22.1591 39.7281 22.7222 39.2195 23.3841 39.2464L24.7917 39.3102L24.7279 37.902C24.6978 37.2395 25.2102 36.6777 25.8734 36.6476C26.5334 36.622 27.0977 37.1306 27.1277 37.7931L27.199 39.3684H30.912V34.9478C30.912 34.2841 31.4494 33.7467 32.1132 33.7467C32.7764 33.7467 33.3144 34.2841 33.3144 34.9478V39.3684H48.6862V26.7179H33.3144V30.9045C33.3144 31.5677 32.7764 32.1057 32.1132 32.1057C31.4494 32.1057 30.912 31.5677 30.912 30.9045V25.5168C30.912 24.8536 31.4494 24.3156 32.1132 24.3156H32.9722V21.247H32.1132C31.4494 21.247 30.912 20.7096 30.912 20.0458C30.912 19.382 31.4494 18.8446 32.1132 18.8446H33.3738L39.5811 4.01517L38.3587 2.79272C37.8895 2.32352 37.8895 1.5634 38.3587 1.09419C38.7591 0.693802 39.3709 0.636871 39.8339 0.919647C39.9602 0.392258 40.4338 0 41 0C41.5662 0 42.0398 0.392258 42.1668 0.919022C42.6291 0.636246 43.2409 0.693802 43.6413 1.09419C44.1105 1.5634 44.1105 2.32352 43.6413 2.79272L42.4189 4.01517L48.6262 18.8446H49.8874C50.5506 18.8446 51.0886 19.382 51.0886 20.0458C51.0886 20.7096 50.5506 21.247 49.8874 21.247H49.0278V24.3156H49.8874C50.5506 24.3156 51.0886 24.8536 51.0886 25.5168V39.3684H54.8016L54.8729 37.7931C54.9029 37.13 55.466 36.6163 56.1273 36.6476C56.7904 36.6777 57.3034 37.2395 57.2728 37.902L57.2089 39.3102L58.6166 39.2464C59.2772 39.2214 59.8415 39.7288 59.8715 40.3913C59.9016 41.0538 59.3886 41.6156 58.726 41.6456L57.1501 41.7176V62.4278H60.6942V59.0839C60.6942 58.6297 60.9507 58.2143 61.3567 58.011C61.7628 57.807 62.2489 57.8496 62.613 58.1211L64.1445 59.2616L65.6753 58.1211C66.0394 57.8496 66.5255 57.8064 66.9315 58.011C67.3376 58.2143 67.5941 58.6297 67.5941 59.0839V62.4278H72.111V59.0839C72.111 58.6297 72.3675 58.2143 72.7735 58.011C73.1795 57.807 73.6656 57.8496 74.0297 58.1211L75.5612 59.2616L77.0921 58.1211C77.4562 57.8496 77.9423 57.8064 78.3483 58.011C78.7543 58.2143 79.0108 58.6297 79.0108 59.0839V62.4278H80.7988C81.462 62.4278 82 62.9652 82 63.629V73.1295C82 73.7926 81.462 74.3306 80.7988 74.3306C80.1357 74.3306 79.5977 73.7926 79.5977 73.1295V64.8301H77.8097C77.1459 64.8301 76.6085 64.2927 76.6085 63.629V61.4775L76.2788 61.7227C75.8528 62.0405 75.2691 62.0405 74.843 61.7227L74.5133 61.4775V63.629C74.5133 64.2927 73.9753 64.8301 73.3121 64.8301H66.3929C65.7291 64.8301 65.1917 64.2927 65.1917 63.629V61.4775L64.8614 61.7227C64.436 62.0405 63.8523 62.0405 63.4263 61.7227L63.0966 61.4775V63.629C63.0966 64.2927 62.5585 64.8301 61.8954 64.8301H57.1501V79.5977H79.5977V77.1728C79.5977 76.509 80.1357 75.9716 80.7988 75.9716C81.462 75.9716 82 76.509 82 77.1728V80.7988C82 81.4626 81.462 82 80.7988 82H1.20117C0.537399 82 0 81.4626 0 80.7988V63.629C0 62.9652 0.537399 62.4278 1.20117 62.4278ZM41 6.84668L35.9782 18.8446H46.0218L41 6.84668ZM46.6255 21.247H35.3745V24.3156H46.6255V21.247ZM54.7478 41.7708H27.2522V59.5587H54.7478V41.7708ZM54.7478 61.9611H27.2522V79.5977H35.0711V74.2305C35.0711 70.9617 37.7306 68.3016 41 68.3016C44.2694 68.3016 46.9289 70.9611 46.9289 74.2305V79.5977H54.7478V61.9611ZM44.5266 79.5977V74.2305C44.5266 72.2861 42.9444 70.704 41 70.704C39.0556 70.704 37.4734 72.2861 37.4734 74.2305V79.5977H44.5266ZM2.40234 79.5977H24.8499V64.8301H20.1046C19.4408 64.8301 18.9034 64.2927 18.9034 63.629V61.4775L18.5737 61.7227C18.1477 62.0405 17.564 62.0405 17.138 61.7227L16.8083 61.4775V63.629C16.8083 64.2927 16.2709 64.8301 15.6071 64.8301H8.68723C8.02408 64.8301 7.48605 64.2927 7.48605 63.629V61.4775L7.15636 61.7227C6.73094 62.0405 6.14662 62.0405 5.72121 61.7227L5.39151 61.4775V63.629C5.39151 64.2927 4.85349 64.8301 4.19034 64.8301H2.40234V79.5977Z" fill="#D3B777"/>
<path d="M5.47159 68.9116H7.4066C8.07037 68.9116 8.60777 69.4496 8.60777 70.1128C8.60777 70.7766 8.07037 71.314 7.4066 71.314H5.47159C4.80782 71.314 4.27042 70.7766 4.27042 70.1128C4.27042 69.4496 4.80782 68.9116 5.47159 68.9116Z" fill="#D3B777"/>
<path d="M16.8884 68.9116H18.8234C19.4871 68.9116 20.0245 69.4496 20.0245 70.1128C20.0245 70.7766 19.4871 71.314 18.8234 71.314H16.8884C16.2246 71.314 15.6872 70.7766 15.6872 70.1128C15.6872 69.4496 16.2252 68.9116 16.8884 68.9116Z" fill="#D3B777"/>
</g>
<defs>
<clipPath id="clip0_219_437">
<rect width="82" height="82" fill="white" transform="matrix(-1 0 0 1 82 0)"/>
</clipPath>
</defs>
</svg>
