<svg width="77" height="77" viewBox="0 0 77 77" fill="none" xmlns="http://www.w3.org/2000/svg">
<g clip-path="url(#clip0_220_502)">
<path d="M75.7167 23.1H74.4333V8.98333C74.4333 8.27462 73.8587 7.7 73.15 7.7H51.3333V1.28333C51.3333 0.574617 50.7587 0 50.05 0H26.95C26.2413 0 25.6667 0.574617 25.6667 1.28333V7.7H3.85C3.14128 7.7 2.56667 8.27462 2.56667 8.98333V23.1H1.28333C0.574617 23.1 0 23.6746 0 24.3833V29.5167C0 30.2254 0.574617 30.8 1.28333 30.8H2.56667V75.7167C2.56667 76.4254 3.14128 77 3.85 77H73.15C73.8587 77 74.4333 76.4254 74.4333 75.7167V30.8H75.7167C76.4254 30.8 77 30.2254 77 29.5167V24.3833C77 23.6746 76.4254 23.1 75.7167 23.1ZM51.3333 10.2667H71.8667V23.1H51.3333V10.2667ZM28.2333 2.56667H48.7667V23.1H28.2333V2.56667ZM5.13333 10.2667H25.6667V23.1H5.13333V10.2667ZM62.8833 74.4333H46.2V64.1667H62.8833V74.4333ZM62.8833 61.6H46.2V48.7667H62.8833V61.6ZM62.8833 46.2H46.2V39.7833H62.8833V46.2ZM71.8667 74.4333H65.45V38.5C65.45 37.7913 64.8754 37.2167 64.1667 37.2167H44.9167C44.208 37.2167 43.6333 37.7913 43.6333 38.5V74.4333H5.13333V30.8H71.8667V74.4333ZM74.4333 28.2333H2.56667V25.6667H74.4333V28.2333Z" fill="#D3B777"/>
<path d="M12.8333 65.4501H35.9333C36.642 65.4501 37.2167 64.8755 37.2167 64.1668V57.7501C37.2167 57.0414 36.642 56.4668 35.9333 56.4668H34.65V38.5001C34.65 37.7914 34.0754 37.2168 33.3667 37.2168H15.4C14.6913 37.2168 14.1167 37.7914 14.1167 38.5001V56.4668H12.8333C12.1246 56.4668 11.55 57.0414 11.55 57.7501V64.1668C11.55 64.8755 12.1246 65.4501 12.8333 65.4501ZM16.6833 39.7835H32.0833V56.4668H16.6833V39.7835ZM14.1167 59.0335H34.65V62.8835H14.1167V59.0335Z" fill="#D3B777"/>
<path d="M59.0333 56.4667C59.742 56.4667 60.3167 55.8921 60.3167 55.1834V53.9C60.3167 53.1913 59.742 52.6167 59.0333 52.6167C58.3246 52.6167 57.75 53.1913 57.75 53.9V55.1834C57.75 55.8921 58.3246 56.4667 59.0333 56.4667Z" fill="#D3B777"/>
<path d="M44.9167 8.9833H42.35V6.41663C42.35 5.70792 41.7754 5.1333 41.0667 5.1333H35.9333C35.2246 5.1333 34.65 5.70792 34.65 6.41663V8.9833H32.0833C31.3746 8.9833 30.8 9.55792 30.8 10.2666V15.4C30.8 16.1087 31.3746 16.6833 32.0833 16.6833H34.65V19.25C34.65 19.9587 35.2246 20.5333 35.9333 20.5333H41.0667C41.7754 20.5333 42.35 19.9587 42.35 19.25V16.6833H44.9167C45.6254 16.6833 46.2 16.1087 46.2 15.4V10.2666C46.2 9.55792 45.6254 8.9833 44.9167 8.9833ZM43.6333 14.1166H41.0667C40.3579 14.1166 39.7833 14.6913 39.7833 15.4V17.9666H37.2167V15.4C37.2167 14.6913 36.642 14.1166 35.9333 14.1166H33.3667V11.55H35.9333C36.642 11.55 37.2167 10.9754 37.2167 10.2666V7.69997H39.7833V10.2666C39.7833 10.9754 40.3579 11.55 41.0667 11.55H43.6333V14.1166Z" fill="#D3B777"/>
<path d="M21.4407 48.3906L25.2907 44.5406C25.777 44.0368 25.7701 43.2366 25.275 42.7416C24.78 42.2466 23.9798 42.2397 23.476 42.7259L19.626 46.5759C19.2926 46.898 19.1585 47.3755 19.2763 47.8242C19.3935 48.2728 19.7438 48.6231 20.1925 48.7403C20.6411 48.8581 21.1186 48.724 21.4407 48.3906Z" fill="#D3B777"/>
<path d="M27.326 45.2928L20.9093 51.7095C20.576 52.0316 20.4419 52.5091 20.5597 52.9577C20.6768 53.4064 21.0271 53.7567 21.4758 53.8739C21.9245 53.9917 22.4019 53.8576 22.724 53.5242L29.1407 47.1075C29.627 46.6037 29.6201 45.8035 29.125 45.3085C28.63 44.8134 27.8298 44.8066 27.326 45.2928Z" fill="#D3B777"/>
</g>
<defs>
<clipPath id="clip0_220_502">
<rect width="77" height="77" fill="white"/>
</clipPath>
</defs>
</svg>
