<svg width="27" height="21" viewBox="0 0 27 21" fill="none" xmlns="http://www.w3.org/2000/svg">
<path d="M16.875 2.0625C17.3226 2.0625 17.7518 2.24029 18.0682 2.55676C18.3847 2.87322 18.5625 3.30245 18.5625 3.75V17.25C18.5625 17.6976 18.3847 18.1268 18.0682 18.4432C17.7518 18.7597 17.3226 18.9375 16.875 18.9375H10.125C9.67745 18.9375 9.24823 18.7597 8.93176 18.4432C8.61529 18.1268 8.4375 17.6976 8.4375 17.25V3.75C8.4375 3.30245 8.61529 2.87322 8.93176 2.55676C9.24823 2.24029 9.67745 2.0625 10.125 2.0625H16.875ZM10.125 0.375C9.22989 0.375 8.37145 0.730579 7.73851 1.36351C7.10558 1.99645 6.75 2.85489 6.75 3.75V17.25C6.75 18.1451 7.10558 19.0035 7.73851 19.6365C8.37145 20.2694 9.22989 20.625 10.125 20.625H16.875C17.7701 20.625 18.6285 20.2694 19.2615 19.6365C19.8944 19.0035 20.25 18.1451 20.25 17.25V3.75C20.25 2.85489 19.8944 1.99645 19.2615 1.36351C18.6285 0.730579 17.7701 0.375 16.875 0.375H10.125Z" fill="#E3C27D"/>
<path d="M13.5 17.25C13.9476 17.25 14.3768 17.0722 14.6933 16.7557C15.0097 16.4393 15.1875 16.0101 15.1875 15.5625C15.1875 15.1149 15.0097 14.6857 14.6933 14.3693C14.3768 14.0528 13.9476 13.875 13.5 13.875C13.0525 13.875 12.6232 14.0528 12.3068 14.3693C11.9903 14.6857 11.8125 15.1149 11.8125 15.5625C11.8125 16.0101 11.9903 16.4393 12.3068 16.7557C12.6232 17.0722 13.0525 17.25 13.5 17.25ZM2.69833 3.84787C2.7963 3.89971 2.88309 3.97034 2.95376 4.05573C3.02442 4.14112 3.07757 4.23959 3.11016 4.34553C3.14276 4.45147 3.15416 4.56279 3.14372 4.67313C3.13329 4.78347 3.10121 4.89068 3.04933 4.98862C2.15199 6.68692 1.68442 8.57921 1.68751 10.5C1.68751 12.4912 2.18026 14.3677 3.04933 16.0114C3.15405 16.2092 3.17591 16.4405 3.11008 16.6544C3.04426 16.8684 2.89614 17.0474 2.69833 17.1521C2.50051 17.2569 2.26919 17.2787 2.05526 17.2129C1.84132 17.1471 1.6623 16.9989 1.55758 16.8011C0.531616 14.8595 -0.00315149 12.6961 1.39715e-05 10.5C1.39715e-05 8.22694 0.563639 6.08044 1.55758 4.19887C1.60941 4.1009 1.68004 4.01411 1.76543 3.94344C1.85082 3.87278 1.9493 3.81963 2.05523 3.78704C2.16117 3.75444 2.27249 3.74304 2.38283 3.75348C2.49318 3.76391 2.60038 3.79599 2.69833 3.84787ZM24.3017 3.84787C24.3996 3.79599 24.5069 3.76391 24.6172 3.75348C24.7275 3.74304 24.8389 3.75444 24.9448 3.78704C25.0507 3.81963 25.1492 3.87278 25.2346 3.94344C25.32 4.01411 25.3906 4.1009 25.4425 4.19887C26.4685 6.14051 27.0032 8.30394 27 10.5C27.0032 12.6961 26.4685 14.8595 25.4425 16.8011C25.3377 16.9989 25.1587 17.1471 24.9448 17.2129C24.7308 17.2787 24.4995 17.2569 24.3017 17.1521C24.1039 17.0474 23.9558 16.8684 23.8899 16.6544C23.8241 16.4405 23.846 16.2092 23.9507 16.0114C24.848 14.3131 25.3156 12.4208 25.3125 10.5C25.3125 8.50875 24.8198 6.63225 23.9507 4.98862C23.8988 4.89068 23.8667 4.78347 23.8563 4.67313C23.8459 4.56279 23.8573 4.45147 23.8899 4.34553C23.9225 4.23959 23.9756 4.14112 24.0463 4.05573C24.1169 3.97034 24.2037 3.89971 24.3017 3.84787ZM5.1587 6.33862C5.26201 6.3789 5.35636 6.43915 5.43637 6.51592C5.51638 6.59269 5.58047 6.68448 5.62498 6.78604C5.66949 6.8876 5.69354 6.99693 5.69577 7.10779C5.69799 7.21865 5.67835 7.32886 5.63795 7.43212C5.25647 8.40991 5.0613 9.45043 5.06251 10.5C5.06251 11.5834 5.26501 12.6178 5.63626 13.5679C5.68335 13.6722 5.70874 13.7849 5.71087 13.8994C5.71301 14.0138 5.69185 14.1274 5.64868 14.2334C5.60552 14.3394 5.54125 14.4354 5.45978 14.5158C5.37831 14.5962 5.28135 14.6591 5.1748 14.7008C5.06824 14.7425 4.95431 14.7621 4.83994 14.7584C4.72557 14.7547 4.61315 14.7278 4.50952 14.6792C4.40589 14.6307 4.31321 14.5616 4.23711 14.4762C4.16102 14.3907 4.1031 14.2907 4.06689 14.1821C3.60868 13.0086 3.37402 11.7598 3.37501 10.5C3.37501 9.20231 3.6197 7.96031 4.06689 6.81787C4.14825 6.60964 4.30893 6.44222 4.51364 6.35236C4.71835 6.26251 4.95035 6.25756 5.1587 6.33862ZM21.8413 6.33862C21.9446 6.29823 22.0548 6.27858 22.1657 6.28081C22.2765 6.28303 22.3859 6.30709 22.4874 6.3516C22.589 6.39611 22.6808 6.4602 22.7575 6.54021C22.8343 6.62021 22.8945 6.71457 22.9348 6.81787C23.3803 7.96031 23.625 9.20231 23.625 10.5C23.625 11.7977 23.3803 13.0397 22.9331 14.1821C22.8441 14.3793 22.6828 14.5347 22.4824 14.6163C22.2821 14.6979 22.0581 14.6995 21.8566 14.6206C21.6552 14.5418 21.4917 14.3886 21.4 14.1927C21.3083 13.9967 21.2953 13.7731 21.3638 13.5679C21.735 12.6178 21.9375 11.5834 21.9375 10.5C21.9375 9.41662 21.735 8.38219 21.3638 7.43212C21.2821 7.22379 21.2865 6.99154 21.3761 6.78647C21.4656 6.5814 21.633 6.4203 21.8413 6.33862Z" fill="#E3C27D"/>
</svg>
