<svg width="82" height="82" viewBox="0 0 82 82" fill="none" xmlns="http://www.w3.org/2000/svg">
<g clip-path="url(#clip0_221_510)">
<path d="M37.3965 43.5247H44.6035C45.267 43.5247 45.8047 42.9871 45.8047 42.3235C45.8047 41.66 45.267 41.1224 44.6035 41.1224H37.3965C36.7331 41.1224 36.1953 41.66 36.1953 42.3235C36.1953 42.9871 36.7331 43.5247 37.3965 43.5247ZM20.9966 13.6639C20.9966 9.50272 17.6112 6.11734 13.45 6.11734C9.28887 6.11734 5.90349 9.50272 5.90349 13.6639C5.90349 17.8251 9.28887 21.2105 13.45 21.2105C17.6112 21.2105 20.9966 17.8251 20.9966 13.6639ZM8.30599 13.6639C8.30599 10.8274 10.6137 8.51968 13.4502 8.51968C16.2867 8.51968 18.5944 10.8274 18.5944 13.6639C18.5944 16.5004 16.2867 18.8081 13.4502 18.8081C10.6137 18.8081 8.30599 16.5003 8.30599 13.6639ZM32.5918 43.5247C33.2542 43.5247 33.7929 42.9859 33.7929 42.3235C33.7929 41.6613 33.2542 41.1224 32.5918 41.1224C31.9294 41.1224 31.3906 41.6613 31.3906 42.3235C31.3906 42.9859 31.9294 43.5247 32.5918 43.5247ZM68.5499 55.1362C64.3887 55.1362 61.0033 58.5216 61.0033 62.6828C61.0033 66.8439 64.3887 70.2293 68.5499 70.2293C72.7111 70.2293 76.0965 66.8439 76.0965 62.6828C76.0965 58.5216 72.7111 55.1362 68.5499 55.1362ZM68.5499 67.827C65.7134 67.827 63.4057 65.5193 63.4057 62.6828C63.4057 59.8462 65.7134 57.5385 68.5499 57.5385C71.3864 57.5385 73.6941 59.8462 73.6941 62.6828C73.6941 65.5193 71.3864 67.827 68.5499 67.827ZM68.5499 49.0195C61.8092 49.0195 56.2038 54.0274 55.2462 60.5253H35.9711C35.3077 60.5253 34.7699 61.0629 34.7699 61.7265C34.7699 62.39 35.3077 62.9276 35.9711 62.9276H55.1105C55.1437 63.7012 55.2644 64.5023 55.4725 65.33H16.219C8.60052 65.33 2.40231 59.1318 2.40231 51.5131C2.40231 43.8939 8.60052 37.695 16.219 37.695H25.3847V40.0974H16.219C9.92517 40.0974 4.80465 45.2179 4.80465 51.5117C4.80465 57.8065 9.92517 62.9276 16.219 62.9276H30.3656C31.029 62.9276 31.5668 62.39 31.5668 61.7265C31.5668 61.0629 31.029 60.5253 30.3656 60.5253H16.219C11.2498 60.5253 7.207 56.4818 7.207 51.5117C7.207 46.5425 11.2498 42.4997 16.219 42.4997H25.3847V45.1469C25.3847 46.8547 26.3625 48.3376 27.7871 49.0679V52.229C27.7871 54.2159 29.4035 55.8326 31.3906 55.8326C33.3777 55.8326 34.9941 54.2159 34.9941 52.229V49.5511H47.0058V52.229C47.0058 54.2159 48.6224 55.8326 50.6093 55.8326C52.5962 55.8326 54.2129 54.2159 54.2129 52.229V49.0679C55.6374 48.3374 56.6152 46.8547 56.6152 45.1469V42.4997H65.7809C74.7241 42.4997 82 35.2238 82 26.2805C82 17.3364 74.7241 10.0599 65.7809 10.0599H26.4666C24.9598 4.2797 19.6957 0.000488281 13.4502 0.000488281C11.6328 0.000488281 9.87008 0.357156 8.21102 1.0604C7.60034 1.31938 7.31494 2.02438 7.57392 2.63522C7.83289 3.24573 8.53806 3.53161 9.14873 3.27232C10.5096 2.69528 11.9569 2.40283 13.4502 2.40283C19.5419 2.40283 24.4979 7.35887 24.4979 13.4506C24.4979 18.7476 18.8209 25.7001 13.4496 30.4981C8.07008 25.7006 2.38966 18.7493 2.40231 13.4536C2.40872 10.7897 3.37062 8.21779 5.11103 6.21135C5.5457 5.71022 5.49188 4.95172 4.99076 4.51705C4.48963 4.08239 3.73113 4.1362 3.2963 4.63733C1.1784 7.07875 0.00781448 10.2077 -3.31755e-05 13.448C-0.00804099 16.83 1.71028 20.7606 5.10735 25.1304C7.79077 28.5826 10.8326 31.391 12.0159 32.4381C12.4246 32.7998 12.9371 32.9808 13.4496 32.9808C13.9625 32.9808 14.4757 32.7995 14.8846 32.4369C16.066 31.3898 19.1034 28.5817 21.7852 25.1296C23.9706 22.3168 25.461 19.6864 26.2464 17.2669H65.7811C70.7503 17.2669 74.7931 21.3104 74.7931 26.2805C74.7931 31.2497 70.7504 35.2927 65.7811 35.2927H56.6152V26.0883C56.6152 23.6599 54.6394 21.684 52.2109 21.684H29.789C27.3604 21.684 25.3847 23.6599 25.3847 26.0883V35.2927H16.219C7.27587 35.2927 -3.31755e-05 42.5692 -3.31755e-05 51.5133C-3.31755e-05 60.4566 7.27587 67.7325 16.219 67.7325H56.2891C57.1413 69.7439 58.4487 71.8877 60.207 74.1496C62.8906 77.6016 65.9324 80.41 67.1155 81.4569C67.5242 81.8189 68.0367 81.9998 68.5494 81.9998C69.0624 81.9998 69.5754 81.8186 69.9844 81.456C71.1659 80.409 74.2031 77.6008 76.8851 74.1487C80.2791 69.7798 82 65.8503 82 62.4697C82 55.0532 75.9662 49.0195 68.5499 49.0195ZM56.6152 37.695H65.7809C72.0748 37.695 77.1953 32.5745 77.1953 26.2805C77.1953 19.9857 72.0748 14.8646 65.7809 14.8646H26.8032C26.8671 14.3833 26.9003 13.9118 26.9003 13.4507C26.9003 13.1179 26.884 12.789 26.8601 12.4622H65.7811C73.3996 12.4622 79.5978 18.6611 79.5978 26.2805C79.5978 33.899 73.3997 40.0974 65.7811 40.0974H56.6152V37.695ZM32.5918 52.2292C32.5918 52.8916 32.053 53.4304 31.3906 53.4304C30.7282 53.4304 30.1894 52.8916 30.1894 52.2292V49.5512H32.5918V52.2292ZM51.8105 52.2292C51.8105 52.8916 51.2718 53.4304 50.6093 53.4304C49.9469 53.4304 49.4082 52.8916 49.4082 52.2292V49.5512H51.8105V52.2292ZM27.7871 26.0885C27.7871 24.9845 28.6851 24.0865 29.789 24.0865H52.2109C53.3149 24.0865 54.2129 24.9845 54.2129 26.0885V35.0958H27.7871V26.0885ZM27.7871 37.4982H54.2129V45.1471C54.2129 46.251 53.3149 47.149 52.2109 47.149H29.789C28.6851 47.149 27.7871 46.251 27.7871 45.1471V37.4982ZM68.5494 79.5173C63.1699 74.7196 57.4895 67.7685 57.5021 62.4725C57.5167 56.3792 62.4726 51.4219 68.5497 51.4219C74.6414 51.4219 79.5975 56.3779 79.5975 62.4696C79.5976 67.7669 73.9207 74.7195 68.5494 79.5173ZM49.4082 43.5247C50.0706 43.5247 50.6093 42.9859 50.6093 42.3235C50.6093 41.6613 50.0706 41.1224 49.4082 41.1224C48.7458 41.1224 48.207 41.6613 48.207 42.3235C48.207 42.9859 48.7458 43.5247 49.4082 43.5247Z" fill="#D3B777"/>
</g>
<defs>
<clipPath id="clip0_221_510">
<rect width="82" height="82" fill="white"/>
</clipPath>
</defs>
</svg>
