<svg width="48" height="48" viewBox="0 0 48 48" fill="none" xmlns="http://www.w3.org/2000/svg">
<path d="M1.02431 23.7914C1.02319 27.8377 2.08519 31.7886 4.10456 35.271L0.831188 47.1693L13.0622 43.9767C16.4451 45.8101 20.2354 46.7708 24.0872 46.771H24.0973C36.8126 46.771 47.1632 36.4703 47.1686 23.8095C47.1711 17.6744 44.7733 11.9054 40.4169 7.5651C36.0613 3.22517 30.2685 0.833827 24.0964 0.831027C11.3796 0.831027 1.02975 11.1311 1.0245 23.7914" fill="url(#paint0_linear_15_140)"/>
<path d="M0.200625 23.7839C0.199313 27.9758 1.29937 32.0681 3.39075 35.6752L0 48L12.6696 44.6929C16.1604 46.5877 20.0908 47.5867 24.0902 47.5882H24.1005C37.272 47.5882 47.9944 36.917 48 23.803C48.0023 17.4475 45.5182 11.471 41.0062 6.97525C36.4937 2.48001 30.4937 0.00261329 24.1005 0C10.9267 0 0.205875 10.6697 0.200625 23.7839ZM7.74563 35.0539L7.27256 34.3064C5.28394 31.1585 4.23431 27.5208 4.23581 23.7854C4.24012 12.8852 13.1509 4.017 24.108 4.017C29.4143 4.01924 34.401 6.07852 38.1517 9.81478C41.9023 13.5514 43.9661 18.5185 43.9648 23.8015C43.9599 34.7017 35.049 43.571 24.1005 43.571H24.0926C20.5277 43.5692 17.0314 42.6161 13.9822 40.8149L13.2566 40.3865L5.73825 42.3489L7.74563 35.0538V35.0539Z" fill="url(#paint1_linear_15_140)"/>
<path d="M18.1271 13.8407C17.6798 12.8509 17.2089 12.8309 16.7835 12.8135C16.4351 12.7986 16.0369 12.7997 15.639 12.7997C15.2407 12.7997 14.5937 12.9489 14.0468 13.5434C13.4993 14.1385 11.9565 15.5765 11.9565 18.5014C11.9565 21.4264 14.0964 24.253 14.3948 24.6501C14.6934 25.0463 18.5259 31.2406 24.5957 33.6235C29.6402 35.6039 30.6668 35.21 31.7616 35.1107C32.8566 35.0118 35.2948 33.673 35.7922 32.2848C36.2901 30.8968 36.2901 29.707 36.1408 29.4583C35.9916 29.2106 35.5933 29.0619 34.9961 28.7647C34.3987 28.4673 31.4629 27.0291 30.9156 26.8307C30.3681 26.6324 29.97 26.5335 29.5718 27.1288C29.1735 27.7231 28.0299 29.0619 27.6814 29.4583C27.3332 29.8557 26.9846 29.9052 26.3876 29.6078C25.7901 29.3096 23.8669 28.6826 21.5852 26.6574C19.8099 25.0816 18.6114 23.1357 18.2631 22.5404C17.9147 21.946 18.2258 21.6239 18.5252 21.3276C18.7935 21.0613 19.1226 20.6334 19.4214 20.2864C19.7192 19.9392 19.8186 19.6915 20.0177 19.295C20.217 18.8982 20.1173 18.551 19.9682 18.2537C19.8186 17.9563 18.6581 15.0162 18.1271 13.8407Z" fill="white"/>
<defs>
<linearGradient id="paint0_linear_15_140" x1="24" y1="48" x2="24" y2="0" gradientUnits="userSpaceOnUse">
<stop stop-color="#1FAF38"/>
<stop offset="1" stop-color="#60D669"/>
</linearGradient>
<linearGradient id="paint1_linear_15_140" x1="24" y1="48" x2="24" y2="0" gradientUnits="userSpaceOnUse">
<stop stop-color="#F9F9F9"/>
<stop offset="1" stop-color="white"/>
</linearGradient>
</defs>
</svg>
