<svg width="21" height="21" viewBox="0 0 21 21" fill="none" xmlns="http://www.w3.org/2000/svg">
<path d="M6.39348 0.925537H14.4807C17.5646 0.925537 20.0647 3.4256 20.0647 6.50957V14.5968C20.0647 17.6808 17.5646 20.1808 14.4807 20.1808H6.39348C3.30951 20.1808 0.809448 17.6808 0.809448 14.5968V6.50957C0.809448 3.4256 3.30951 0.925537 6.39348 0.925537ZM6.20093 2.85105C4.28673 2.85105 2.73498 4.40281 2.73498 6.317V14.7893C2.73498 16.7035 4.28673 18.2553 6.20093 18.2553H14.6733C16.5874 18.2553 18.1392 16.7035 18.1392 14.7893V6.317C18.1392 4.40281 16.5874 2.85105 14.6733 2.85105H6.20093ZM15.4916 4.29519C16.1563 4.29519 16.6951 4.83401 16.6951 5.49865C16.6951 6.1633 16.1563 6.70211 15.4916 6.70211C14.8269 6.70211 14.2882 6.1633 14.2882 5.49865C14.2882 4.83401 14.8269 4.29519 15.4916 4.29519ZM10.4371 5.73934C13.0957 5.73934 15.2509 7.89457 15.2509 10.5532C15.2509 13.2117 13.0957 15.367 10.4371 15.367C7.77849 15.367 5.62327 13.2117 5.62327 10.5532C5.62327 7.89457 7.77849 5.73934 10.4371 5.73934ZM10.4371 7.66487C8.84189 7.66487 7.5488 8.95806 7.5488 10.5532C7.5488 12.1484 8.84189 13.4415 10.4371 13.4415C12.0323 13.4415 13.3254 12.1484 13.3254 10.5532C13.3254 8.95806 12.0323 7.66487 10.4371 7.66487Z" fill="white"/>
</svg>
