<svg width="24" height="17" viewBox="0 0 24 17" fill="none" xmlns="http://www.w3.org/2000/svg">
<path d="M23.8639 2.14651C23.0184 2.46596 22.1097 2.68185 21.1562 2.77892C22.1294 2.28186 22.877 1.49479 23.229 0.556893C22.318 1.0172 21.3091 1.35142 20.2351 1.5315C19.3752 0.75093 18.15 0.263245 16.7939 0.263245C14.1902 0.263245 12.0791 2.06143 12.0791 4.27945C12.0791 4.59422 12.1208 4.90077 12.2013 5.19475C8.28293 5.02724 4.80891 3.42829 2.48364 0.998357C2.07779 1.59153 1.84529 2.28144 1.84529 3.01751C1.84529 4.41093 2.67759 5.64024 3.94268 6.36053C3.16991 6.33956 2.44285 6.15895 1.80726 5.85813C1.80681 5.87491 1.80681 5.89167 1.80681 5.90861C1.80681 7.8546 3.43196 9.47781 5.58871 9.84681C5.19312 9.93862 4.7766 9.98775 4.34663 9.98775C4.04283 9.98775 3.74749 9.96249 3.45957 9.91569C4.05954 11.5112 5.80067 12.6725 7.86377 12.7048C6.25023 13.7821 4.21736 14.4242 2.00845 14.4242C1.6279 14.4242 1.25262 14.4051 0.883789 14.368C2.97024 15.5075 5.44845 16.1725 8.1109 16.1725C16.7828 16.1725 21.5251 10.0526 21.5251 4.74515C21.5251 4.57105 21.5204 4.39784 21.5113 4.22555C22.4326 3.65928 23.2319 2.95193 23.8639 2.14651Z" fill="white"/>
</svg>
